# xmcd
#
# Track frame offsets:
#	150
#	9918
#	18743
#	27431
#	36945
#	47423
#	57359
#	67593
#	78219
#	88876
#	99560
#	110954
#	122872
#	132864
#	144600
#	154122
#	164548
#	173764
#	183847
#	195364
#	203691
#	213258
#	222972
#	232629
#	244667
#
# Disc length: 3393 seconds
# Revision: 1
# Processed by: cddbd v1.5.2PL0 Copyright (c) Steve Scherf et al.
# Submitted via: dBpowerAMP V12.0
#
DISCID=4d0d3f19
DTITLE=Jimmy Bryant - Wizards of Country Guitar: Selected Sides 1935-1955, CD04 - CD04
DYEAR=2011
DGENRE=Country
TTITLE0=Cracker Jack
TTITLE1=Georgia Steel Guitar
TTITLE2=Midnight Ramble
TTITLE3=Serenade to a Frog
TTITLE4=Roadside Rag
TTITLE5=Truck Driver's Ride
TTITLE6=Hub Cap Roll
TTITLE7=Bryant's Bounce
TTITLE8=Hop Skip and Jump
TTITLE9=Old Joe Clark
TTITLE10=Blue Bonnet Rag
TTITLE11=Low Man on a Totem Pole
TTITLE12=Country Capers
TTITLE13=This Is Southland
TTITLE14=Arkansas Traveller
TTITLE15=Swingin' on the Strings
TTITLE16=Speedin' West
TTITLE17=Railroadin'
TTITLE18=West of Samoa
TTITLE19=Caffeine Patrol
TTITLE20=Flippin' the Lid
TTITLE21=This Ain't the Blues
TTITLE22=Stainless Steel
TTITLE23=Stealin' Moonlight
TTITLE24=Stratosphere Boogie
EXTD=
EXTT0=
EXTT1=
EXTT2=
EXTT3=
EXTT4=
EXTT5=
EXTT6=
EXTT7=
EXTT8=
EXTT9=
EXTT10=
EXTT11=
EXTT12=
EXTT13=
EXTT14=
EXTT15=
EXTT16=
EXTT17=
EXTT18=
EXTT19=
EXTT20=
EXTT21=
EXTT22=
EXTT23=
EXTT24=
PLAYORDER=
